<?xml version="1.0" encoding="UTF-8" standalone="no"?>
<svg
   version="1.1"
   id="Layer_1"
   x="0px"
   y="0px"
   viewBox="0 0 150.8 150.8"
   xml:space="preserve"
   sodipodi:docname="logo.svg"
   width="150.8"
   height="150.8"
   inkscape:version="1.2 (dc2aeda, 2022-05-15)"
   xmlns:inkscape="http://www.inkscape.org/namespaces/inkscape"
   xmlns:sodipodi="http://sodipodi.sourceforge.net/DTD/sodipodi-0.dtd"
   xmlns:xlink="http://www.w3.org/1999/xlink"
   xmlns="http://www.w3.org/2000/svg"
   xmlns:svg="http://www.w3.org/2000/svg"><defs
   id="defs68" /><sodipodi:namedview
   id="namedview66"
   pagecolor="#ffffff"
   bordercolor="#000000"
   borderopacity="0.25"
   inkscape:showpageshadow="2"
   inkscape:pageopacity="0.0"
   inkscape:pagecheckerboard="0"
   inkscape:deskcolor="#d1d1d1"
   showgrid="false"
   inkscape:zoom="1.18"
   inkscape:cx="-100"
   inkscape:cy="78.389831"
   inkscape:window-width="1517"
   inkscape:window-height="895"
   inkscape:window-x="0"
   inkscape:window-y="25"
   inkscape:window-maximized="0"
   inkscape:current-layer="Layer_1" />
<style
   type="text/css"
   id="style2">
	.st0{fill:#D2E8FF;}
	.st1{clip-path:url(#SVGID_00000180331195256659297860000010804132442979143861_);fill:#E9F5FF;}
	.st2{clip-path:url(#SVGID_00000180331195256659297860000010804132442979143861_);fill:#B5D4FB;}
	.st3{clip-path:url(#SVGID_00000180331195256659297860000010804132442979143861_);fill:#C4DDFC;}
	.st4{clip-path:url(#SVGID_00000180331195256659297860000010804132442979143861_);fill:#92C6FF;}
	.st5{clip-path:url(#SVGID_00000180331195256659297860000010804132442979143861_);fill:#AED9FF;}
	.st6{clip-path:url(#SVGID_00000180331195256659297860000010804132442979143861_);}
	.st7{fill:#5299FF;}
	.st8{clip-path:url(#SVGID_00000005948229790608186530000018385890260109548673_);fill:#358FFC;}
	.st9{fill:url(#SVGID_00000110430062641922230350000007880956083845645186_);}
	.st10{fill:#76A8FF;}
	.st11{clip-path:url(#SVGID_00000180331195256659297860000010804132442979143861_);fill:#D2ECFF;}
	.st12{fill:#C4DDFC;}
</style>
<g
   id="g63"
   inkscape:export-filename="g63.svg"
   inkscape:export-xdpi="96"
   inkscape:export-ydpi="96"
   transform="translate(-24.599998,-24.599998)">
	<circle
   class="st0"
   cx="100"
   cy="100"
   r="75.400002"
   id="circle4" />
	<g
   id="g59">
		<defs
   id="defs7">
			<circle
   id="SVGID_1_"
   cx="100"
   cy="100"
   r="75.400002" />
		</defs>
		<clipPath
   id="SVGID_00000149340382321786602170000007286338932105131945_">
			<use
   xlink:href="#SVGID_1_"
   style="overflow:visible"
   id="use9" />
		</clipPath>

			<circle
   style="fill:#e9f5ff"
   cx="100"
   cy="74.900002"
   r="34.400002"
   clip-path="url(#SVGID_00000149340382321786602170000007286338932105131945_)"
   id="circle12" />
		<polygon
   style="fill:#b5d4fb"
   points="65.7,100.5 99.2,57.7 130.5,102.4 144.2,84.5 156.4,97.6 187,134.4 193.4,191.2 89.5,218.8 36.3,196.8 10.8,144.4 17.2,115.1 52,84.3 "
   clip-path="url(#SVGID_00000149340382321786602170000007286338932105131945_)"
   id="polygon14" />
		<polygon
   style="fill:#c4ddfc"
   points="64.7,100.4 55.3,96.2 46.5,105.3 43.6,98.5 28.3,106.6 51.9,85.9 "
   clip-path="url(#SVGID_00000149340382321786602170000007286338932105131945_)"
   id="polygon16" />
		<polygon
   style="fill:#c4ddfc"
   points="134.3,112.3 111.7,93 98.2,111.8 84.2,96.8 58.2,113.2 98.8,60.5 "
   clip-path="url(#SVGID_00000149340382321786602170000007286338932105131945_)"
   id="polygon18" />
		<path
   style="fill:#92c6ff"
   d="m 120.4,138.4 c 21,-13.4 11,6.1 34.4,10.4 23.4,4.3 27,16.6 -4,17 -31,0.4 -50.3,-20 -44,-20.6 4.6,-0.6 13.6,-6.8 13.6,-6.8 z"
   clip-path="url(#SVGID_00000149340382321786602170000007286338932105131945_)"
   id="path20" />
		<path
   style="fill:#92c6ff"
   d="m 25.9,151.1 c 2.1,-3.4 5.5,-5.8 9.3,-7.1 19,-6.4 19.3,-12.8 30.1,-15.6 13.3,-3.3 8.3,15.3 23.8,21.3 15.5,6.1 18.9,3.5 14.2,4.8 -4.7,1.3 -48.2,8.3 -68.8,6.6 -11.5,-1 -11.1,-5.9 -8.6,-10 z"
   clip-path="url(#SVGID_00000149340382321786602170000007286338932105131945_)"
   id="path22" />
		<path
   style="fill:#aed9ff"
   d="m 33.8,164.2 c 10.2,-3.9 17.7,-13.7 28.4,-16.5 7,-1.9 14.4,1.5 20.4,4.8 3,1.7 8.8,5.2 10,8.4 3.1,8 -14.8,4.8 -19,5.6 -9,1.9 -17.2,6 -26.5,2.7 -3.6,-1.2 -7.1,-2.1 -10.9,-2.7 -1.1,-0.2 -3.6,-0.1 -3.8,-1.5"
   clip-path="url(#SVGID_00000149340382321786602170000007286338932105131945_)"
   id="path24" />
		<path
   style="fill:#aed9ff"
   d="m 104.4,161.7 c -0.6,-2.7 4.8,-7.8 6.7,-9.6 2.2,-2.2 4.6,-4 7.9,-4.5 6.9,-1 13.9,5.9 19.7,8.6 3,1.4 7.7,1.6 10.1,4 1.4,1.3 2.8,5.2 1.2,6.8 -0.6,0.7 -3.1,1.4 -4,1.8 -2.3,1.1 -4.6,1.3 -7.1,1.3 -4.8,0 -9.3,0.7 -14.1,1 -6.8,0.5 -12.5,0.2 -18.1,-3.9 -1.1,-0.8 -1.3,-1.1 -1.9,-2 -0.5,-0.7 0.2,-1.2 -0.8,-1.7"
   clip-path="url(#SVGID_00000149340382321786602170000007286338932105131945_)"
   id="path26" />
		<g
   clip-path="url(#SVGID_00000149340382321786602170000007286338932105131945_)"
   id="g55">
			<path
   class="st7"
   d="m 100,139.6 c -1.9,0 -3.4,-1.5 -3.4,-3.4 v -68 c 0,-1.9 6.7,-1.9 6.7,0 v 68 c 0.1,1.9 -1.4,3.4 -3.3,3.4 z"
   id="path28" />
			<g
   id="g42">
				<defs
   id="defs31">
					<path
   id="SVGID_00000183968525679613102740000018406093591702379709_"
   d="m 100,139.6 c -1.9,0 -3.4,-1.5 -3.4,-3.4 v -68 c 0,-1.9 6.7,-1.9 6.7,0 v 68 c 0.1,1.9 -1.4,3.4 -3.3,3.4 z" />
				</defs>
				<clipPath
   id="SVGID_00000005947160320639762740000005585591695110785419_">
					<use
   xlink:href="#SVGID_00000183968525679613102740000018406093591702379709_"
   style="overflow:visible"
   id="use33" />
				</clipPath>
				<path
   style="fill:#358ffc"
   d="m 100.4,127 -0.6,-0.3 c 1.8,-3.4 1.6,-16.6 1.4,-29.4 C 101,86.2 100.8,74.8 102,69.6 l 0.7,0.1 c -1.1,5.1 -0.9,16.5 -0.7,27.5 0.1,13.5 0.3,26.2 -1.6,29.8 z"
   clip-path="url(#SVGID_00000005947160320639762740000005585591695110785419_)"
   id="path36" />
				<path
   style="fill:#358ffc"
   d="M 95.5,134.2 94.9,134 c 3,-9 3.1,-22.8 3.2,-38.8 0,-7.6 0.1,-15.4 0.4,-23.8 h 0.7 c -0.3,8.3 -0.4,16.2 -0.4,23.7 -0.1,16.2 -0.2,30.1 -3.3,39.1 z"
   clip-path="url(#SVGID_00000005947160320639762740000005585591695110785419_)"
   id="path38" />
				<path
   style="fill:#358ffc"
   d="m 97,138.9 -0.7,-0.1 c 3,-19.5 4.2,-37.5 3.2,-49.3 -1.1,-13.2 3,-28.8 3.1,-29 l 0.7,0.2 c 0,0.2 -4.2,15.7 -3.1,28.8 1,11.8 -0.2,29.8 -3.2,49.4 z"
   clip-path="url(#SVGID_00000005947160320639762740000005585591695110785419_)"
   id="path40" />
			</g>

				<linearGradient
   id="SVGID_00000167373337687803547190000016124382834630759302_"
   gradientUnits="userSpaceOnUse"
   x1="100"
   y1="127.521"
   x2="100"
   y2="159.3744">
				<stop
   offset="0"
   style="stop-color:#1877F2"
   id="stop44" />
				<stop
   offset="0.9994"
   style="stop-color:#80B7FF"
   id="stop46" />
			</linearGradient>
			<path
   style="fill:url(#SVGID_00000167373337687803547190000016124382834630759302_)"
   d="m 116.9,123.2 h -10.4 c -0.8,0 -1.5,0.4 -1.8,1.1 l -1.9,3.8 v 0 c -1,2.6 -4.6,2.6 -5.6,0 v 0 l -1.9,-3.8 c -0.3,-0.7 -1.1,-1.1 -1.8,-1.1 H 83.1 c -0.6,0 -1.1,0.5 -1.1,1.1 v 17.5 c 0,7.4 3.8,14.3 10.1,18.2 l 1.1,0.7 c 2.1,1.3 4.5,2 6.9,2 2.4,0 4.8,-0.7 6.9,-2 l 1.1,-0.7 c 6.3,-3.9 10.1,-10.8 10.1,-18.2 v -17.5 c -0.1,-0.6 -0.6,-1.1 -1.3,-1.1 z"
   id="path49" />
			<path
   class="st10"
   d="m 101.6,144.3 v 0 c -0.8,1.1 -2.5,1.1 -3.3,0 v 0 c -1.1,-1.6 -1.7,-3.5 -1.7,-5.4 v -18.8 c 0,-0.1 0.1,-0.1 0.1,-0.1 h 6.5 c 0.1,0 0.1,0.1 0.1,0.1 v 18.8 c 0.1,1.9 -0.5,3.8 -1.7,5.4 z"
   id="path51" />
			<path
   class="st10"
   d="M 107.7,45.4 H 91.9 c -3.2,0 -5.7,2.6 -5.7,5.7 v 6.5 c 0,3.5 1.5,6.9 4.1,9.2 l 6.4,5.9 v 7.8 h 6.7 v -8.1 l 6,-5.5 c 2.6,-2.4 4.1,-5.7 4.1,-9.2 v -6.5 c -0.1,-3.2 -2.6,-5.8 -5.8,-5.8 z m -1,12.2 c 0,1.6 -0.7,3.2 -1.9,4.3 l -5,4.6 -5,-4.6 c -1.2,-1.1 -1.9,-2.7 -1.9,-4.3 v -5.5 h 13.8 z"
   id="path53" />
		</g>
		<path
   style="fill:#d2ecff"
   d="m 65.8,166.8 c 4.6,0.2 9.1,-2.7 13,-4.8 3.9,-2.1 7.8,-4.8 11.8,-6.7 7.5,-3.7 15.4,-2.6 22.2,2.2 3.5,2.4 6.9,4.6 10.8,6.4 3.2,1.5 6.8,3 9.6,5.3 7,5.6 -6.5,9.1 -10.4,10.5 -4.2,1.4 -8.2,1.5 -12.6,1.5 -7.6,0 -15.1,-0.3 -22.7,-0.9 -5.4,-0.4 -10.5,-2.9 -15.7,-4 -3,-0.7 -7.7,-0.6 -9,-4 -0.7,-1.8 0.2,-3.6 2.2,-3.4"
   clip-path="url(#SVGID_00000149340382321786602170000007286338932105131945_)"
   id="path57" />
	</g>
	<polygon
   class="st12"
   points="155.1,98.8 146.7,96.3 142.3,101.7 140.3,98.1 133.7,101.7 144.4,86.9 "
   id="polygon61" />
</g>
</svg>
